<?xml version="1.0" encoding="UTF-8"?>
<svg width="141px" height="46px" viewBox="0 0 141 46" version="1.1" xmlns="http://www.w3.org/2000/svg" xmlns:xlink="http://www.w3.org/1999/xlink">
    <title>D1053DE0-2C7A-40BD-A20E-63C0091ACE88</title>
    <g id="website" stroke="none" stroke-width="1" fill="none" fill-rule="evenodd">
        <g id="havahavai_mobile-website" transform="translate(-47.000000, -2333.000000)">
            <g id="Group-9" transform="translate(0.000000, 2208.000000)">
                <g id="app-store" transform="translate(48.000000, 126.000000)">
                    <rect id="Rectangle" fill="#FFFFFF" fill-rule="nonzero" x="0" y="0" width="139" height="44.4" rx="4.86"></rect>
                    <path d="M26.8169791,22.9797073 C26.8289395,22.0398351 27.0774155,21.1182644 27.5391326,20.3006546 C28.0007419,19.4831532 28.6607225,18.7962527 29.4574403,18.3039541 C28.9513295,17.5774185 28.2835907,16.9795346 27.507238,16.5577346 C26.7308853,16.1359346 25.867469,15.9019141 24.9853039,15.8741912 C23.1037395,15.6756907 21.279607,17.0057415 20.3207225,17.0057415 C19.3434124,17.0057415 17.8671031,15.8939005 16.2774388,15.9267132 C15.249162,15.9601756 14.247069,16.2606878 13.3686752,16.7990107 C12.4903891,17.3373337 11.7657574,18.0951659 11.2654651,18.9986517 C9.09846589,22.7694029 10.7148527,28.3111727 12.7906938,31.3591785 C13.8293147,32.8517766 15.0431403,34.5189424 16.6314039,34.4598146 C18.1856178,34.3949473 18.7660775,33.4637385 20.6421465,33.4637385 C22.5007597,33.4637385 23.045338,34.4598146 24.6659271,34.4222371 C26.3336039,34.3949473 27.3844008,32.9230332 28.3866016,31.4163571 C29.1327837,30.3529229 29.7069938,29.1775141 30.0880047,27.9337727 C29.1190992,27.5219356 28.2922109,26.8325444 27.7105659,25.9515834 C27.1288132,25.0706224 26.8180566,24.0370771 26.8169791,22.9797073 Z" id="Path" fill="#000000" fill-rule="nonzero"></path>
                    <path d="M23.7560698,13.8695854 C24.6653884,12.7724722 25.1133132,11.3623932 25.0049147,9.93864761 C23.615669,10.0852976 22.3323434,10.7525971 21.4107411,11.8075844 C20.9601225,12.3229493 20.614993,12.9225659 20.3951791,13.5721054 C20.1752574,14.2216449 20.0848535,14.9083288 20.1292473,15.5929551 C20.8241395,15.6001024 21.5114891,15.4488176 22.1397907,15.1502546 C22.7679845,14.8516917 23.3206442,14.4138644 23.7560698,13.8695854 Z" id="Path" fill="#000000" fill-rule="nonzero"></path>
                    <path d="M43.1858621,16.956 C43.9527586,16.956 44.6597414,16.77 45.3068103,16.398 C45.9538793,16.026 46.4531609,15.528 46.8046552,14.904 L46.8046552,14.904 L45.8340517,14.352 C45.5943966,14.808 45.2369109,15.174 44.7615948,15.45 C44.2862787,15.726 43.7610345,15.864 43.1858621,15.864 C42.2192529,15.864 41.4303879,15.552 40.8192672,14.928 C40.2081466,14.304 39.9025862,13.528 39.9025862,12.6 C39.9025862,11.664 40.2081466,10.884 40.8192672,10.26 C41.4303879,9.636 42.2192529,9.324 43.1858621,9.324 C43.7610345,9.324 44.2862787,9.462 44.7615948,9.738 C45.2369109,10.014 45.5943966,10.384 45.8340517,10.848 L45.8340517,10.848 L46.8046552,10.284 C46.4451724,9.66 45.9438937,9.164 45.300819,8.796 C44.6577443,8.428 43.9527586,8.244 43.1858621,8.244 C41.9156897,8.244 40.8671983,8.664 40.0403879,9.504 C39.2135776,10.344 38.8001724,11.376 38.8001724,12.6 C38.8001724,13.824 39.2135776,14.856 40.0403879,15.696 C40.8671983,16.536 41.9156897,16.956 43.1858621,16.956 Z M50.8068966,16.956 C51.6856322,16.956 52.4325575,16.652 53.0476724,16.044 C53.6627874,15.436 53.9703448,14.688 53.9703448,13.8 C53.9703448,12.912 53.6627874,12.164 53.0476724,11.556 C52.4325575,10.948 51.6856322,10.644 50.8068966,10.644 C49.9281609,10.644 49.1832328,10.948 48.5721121,11.556 C47.9609914,12.164 47.655431,12.912 47.655431,13.8 C47.655431,14.688 47.9609914,15.436 48.5721121,16.044 C49.1832328,16.652 49.9281609,16.956 50.8068966,16.956 Z M50.8068966,15.936 C50.2157471,15.936 49.7164655,15.732 49.3090517,15.324 C48.9016379,14.916 48.697931,14.408 48.697931,13.8 C48.697931,13.192 48.9016379,12.684 49.3090517,12.276 C49.7164655,11.868 50.2157471,11.664 50.8068966,11.664 C51.4060345,11.664 51.9093103,11.868 52.3167241,12.276 C52.7241379,12.684 52.9278448,13.192 52.9278448,13.8 C52.9278448,14.408 52.7241379,14.916 52.3167241,15.324 C51.9093103,15.732 51.4060345,15.936 50.8068966,15.936 Z M56.247069,16.8 L56.247069,13.464 C56.247069,12.856 56.3928592,12.4 56.6844397,12.096 C56.9760201,11.792 57.3414943,11.64 57.7808621,11.64 C58.1722989,11.64 58.4818534,11.768 58.7095259,12.024 C58.9371983,12.28 59.0510345,12.64 59.0510345,13.104 L59.0510345,13.104 L59.0510345,16.8 L60.0935345,16.8 L60.0935345,13.464 C60.0935345,12.848 60.227342,12.39 60.4949569,12.09 C60.7625718,11.79 61.1200575,11.64 61.5674138,11.64 C61.9668391,11.64 62.2863793,11.768 62.5260345,12.024 C62.7656897,12.28 62.8855172,12.64 62.8855172,13.104 L62.8855172,13.104 L62.8855172,16.8 L63.9280172,16.8 L63.9280172,13.068 C63.9280172,12.324 63.7203161,11.734 63.3049138,11.298 C62.8895115,10.862 62.3462931,10.644 61.6752586,10.644 C60.8364655,10.644 60.2093678,10.984 59.7939655,11.664 C59.4264943,10.984 58.8393391,10.644 58.0325,10.644 C57.2496264,10.644 56.6544828,10.964 56.247069,11.604 L56.247069,11.604 L56.247069,10.8 L55.204569,10.8 L55.204569,16.8 L56.247069,16.8 Z M65.9051724,9.708 C66.0968966,9.708 66.2606609,9.64 66.3964655,9.504 C66.5322701,9.368 66.6001724,9.204 66.6001724,9.012 C66.6001724,8.82 66.5322701,8.654 66.3964655,8.514 C66.2606609,8.374 66.0968966,8.304 65.9051724,8.304 C65.7054598,8.304 65.5377011,8.374 65.4018966,8.514 C65.266092,8.654 65.1981897,8.82 65.1981897,9.012 C65.1981897,9.204 65.266092,9.368 65.4018966,9.504 C65.5377011,9.64 65.7054598,9.708 65.9051724,9.708 Z M66.420431,16.8 L66.420431,10.8 L65.377931,10.8 L65.377931,16.8 L66.420431,16.8 Z M69.0566379,16.8 L69.0566379,13.62 C69.0566379,12.948 69.216408,12.45 69.5359483,12.126 C69.8554885,11.802 70.2748851,11.64 70.7941379,11.64 C71.2574713,11.64 71.6209483,11.774 71.884569,12.042 C72.1481897,12.31 72.28,12.688 72.28,13.176 L72.28,13.176 L72.28,16.8 L73.3225,16.8 L73.3225,13.116 C73.3225,12.356 73.1108046,11.754 72.6874138,11.31 C72.264023,10.866 71.7008333,10.644 70.9978448,10.644 C70.1270977,10.644 69.4800287,10.984 69.0566379,11.664 L69.0566379,11.664 L69.0566379,10.8 L68.0141379,10.8 L68.0141379,16.8 L69.0566379,16.8 Z M77.7201724,19.356 C78.5589655,19.356 79.277931,19.11 79.877069,18.618 C80.4762069,18.126 80.7757759,17.436 80.7757759,16.548 L80.7757759,16.548 L80.7757759,10.8 L79.7452586,10.8 L79.7452586,11.832 C79.2260057,11.04 78.4750862,10.644 77.4925,10.644 C76.6377299,10.644 75.9147701,10.946 75.3236207,11.55 C74.7324713,12.154 74.4368966,12.892 74.4368966,13.764 C74.4368966,14.636 74.7324713,15.376 75.3236207,15.984 C75.9147701,16.592 76.6377299,16.896 77.4925,16.896 C78.4670977,16.896 79.2180172,16.496 79.7452586,15.696 L79.7452586,15.696 L79.7452586,16.548 C79.7452586,17.116 79.5675144,17.564 79.2120259,17.892 C78.8565374,18.22 78.3672414,18.384 77.7441379,18.384 C76.7695402,18.384 76.118477,18.048 75.7909483,17.376 L75.7909483,17.376 L74.8802586,17.892 C75.1279023,18.364 75.4953736,18.726 75.9826724,18.978 C76.4699713,19.23 77.0491379,19.356 77.7201724,19.356 Z M77.6123276,15.9 C77.0052011,15.9 76.497931,15.696 76.0905172,15.288 C75.6831034,14.88 75.4793966,14.372 75.4793966,13.764 C75.4793966,13.164 75.6831034,12.66 76.0905172,12.252 C76.497931,11.844 77.0052011,11.64 77.6123276,11.64 C78.219454,11.64 78.7267241,11.844 79.1341379,12.252 C79.5415517,12.66 79.7452586,13.164 79.7452586,13.764 C79.7452586,14.372 79.5415517,14.88 79.1341379,15.288 C78.7267241,15.696 78.219454,15.9 77.6123276,15.9 Z M88.1691379,16.956 C89.0478736,16.956 89.7947989,16.652 90.4099138,16.044 C91.0250287,15.436 91.3325862,14.688 91.3325862,13.8 C91.3325862,12.912 91.0250287,12.164 90.4099138,11.556 C89.7947989,10.948 89.0478736,10.644 88.1691379,10.644 C87.2904023,10.644 86.5454741,10.948 85.9343534,11.556 C85.3232328,12.164 85.0176724,12.912 85.0176724,13.8 C85.0176724,14.688 85.3232328,15.436 85.9343534,16.044 C86.5454741,16.652 87.2904023,16.956 88.1691379,16.956 Z M88.1691379,15.936 C87.5779885,15.936 87.0787069,15.732 86.6712931,15.324 C86.2638793,14.916 86.0601724,14.408 86.0601724,13.8 C86.0601724,13.192 86.2638793,12.684 86.6712931,12.276 C87.0787069,11.868 87.5779885,11.664 88.1691379,11.664 C88.7682759,11.664 89.2715517,11.868 89.6789655,12.276 C90.0863793,12.684 90.2900862,13.192 90.2900862,13.8 C90.2900862,14.408 90.0863793,14.916 89.6789655,15.324 C89.2715517,15.732 88.7682759,15.936 88.1691379,15.936 Z M93.6093103,16.8 L93.6093103,13.62 C93.6093103,12.948 93.7690805,12.45 94.0886207,12.126 C94.4081609,11.802 94.8275575,11.64 95.3468103,11.64 C95.8101437,11.64 96.1736207,11.774 96.4372414,12.042 C96.7008621,12.31 96.8326724,12.688 96.8326724,13.176 L96.8326724,13.176 L96.8326724,16.8 L97.8751724,16.8 L97.8751724,13.116 C97.8751724,12.356 97.663477,11.754 97.2400862,11.31 C96.8166954,10.866 96.2535057,10.644 95.5505172,10.644 C94.6797701,10.644 94.0327011,10.984 93.6093103,11.664 L93.6093103,11.664 L93.6093103,10.8 L92.5668103,10.8 L92.5668103,16.8 L93.6093103,16.8 Z" id="Comingon" fill="#000000" fill-rule="nonzero"></path>
                    <path d="M42.2689302,28.4636488 L42.0275659,29.4339512 L44.3205271,29.4339512 L44.0791628,28.4636488 C43.7860775,27.3547317 43.4929922,26.0205659 43.199907,24.8423415 L43.1309457,24.8423415 C42.8551008,26.0205659 42.5620155,27.3547317 42.2689302,28.4636488 Z M38.1140155,34.1121951 L41.6137984,22.8324293 L44.8204961,22.8324293 L48.3202791,34.1121951 L45.4928682,34.1121951 L44.8377364,31.5131707 L41.5103566,31.5131707 L40.8552248,34.1121951 L38.1140155,34.1121951 Z M49.2715132,37.265678 L49.2715132,25.500761 L51.4437922,25.500761 L51.6334357,26.3324488 L51.7023969,26.3324488 C52.3575287,25.7260098 53.2195442,25.292839 54.0988,25.292839 C56.1676372,25.292839 57.4434202,27.0081951 57.4434202,29.6592 C57.4434202,32.6220878 55.7021488,34.3201171 53.8574357,34.3201171 C53.1161023,34.3201171 52.4437302,34.0082341 51.8403194,33.4364488 L51.9265209,34.7706146 L51.9265209,37.265678 L49.2715132,37.265678 Z M53.2195442,32.1196098 C54.0470791,32.1196098 54.7022109,31.4438634 54.7022109,29.6938537 C54.7022109,28.1864195 54.2539628,27.4760195 53.3057457,27.4760195 C52.8057767,27.4760195 52.3920093,27.7012683 51.9265209,28.2037463 L51.9265209,31.6171317 C52.3575287,31.998322 52.8057767,32.1196098 53.2195442,32.1196098 Z M59.1880318,37.265678 L59.1880318,25.500761 L61.3603109,25.500761 L61.5499543,26.3324488 L61.6189155,26.3324488 C62.2740473,25.7260098 63.1360628,25.292839 64.0153186,25.292839 C66.0841558,25.292839 67.3599388,27.0081951 67.3599388,29.6592 C67.3599388,32.6220878 65.6186674,34.3201171 63.7739543,34.3201171 C63.0326209,34.3201171 62.3602488,34.0082341 61.756838,33.4364488 L61.8430395,34.7706146 L61.8430395,37.265678 L59.1880318,37.265678 Z M63.1360628,32.1196098 C63.9635977,32.1196098 64.6187295,31.4438634 64.6187295,29.6938537 C64.6187295,28.1864195 64.1704814,27.4760195 63.2222643,27.4760195 C62.7222953,27.4760195 62.3085279,27.7012683 61.8430395,28.2037463 L61.8430395,31.6171317 C62.2740473,31.998322 62.7222953,32.1196098 63.1360628,32.1196098 Z M76.2453791,34.3201171 C74.7282318,34.3201171 73.2283248,33.8003122 72.0559837,32.6740683 L73.4696891,30.9240585 C74.2627434,31.6171317 75.3488829,31.998322 76.2971,31.998322 C77.3142783,31.998322 77.7797667,31.6171317 77.7797667,31.0106927 C77.7797667,30.3522732 77.1763558,30.1443512 76.1936581,29.7458341 L74.7627124,29.1220683 C73.573131,28.6542439 72.4869915,27.6666146 72.4869915,26.0378927 C72.4869915,24.1492683 74.1765419,22.6245073 76.5557047,22.6245073 C77.9004488,22.6245073 79.2279527,23.1269854 80.1934101,24.0279805 L78.796945,25.7779902 C78.0383713,25.2408585 77.2625574,24.9463024 76.5557047,24.9463024 C75.7281698,24.9463024 75.1937202,25.2755122 75.1937202,25.8646244 C75.1937202,26.5230439 75.9005729,26.7482927 76.9005109,27.1468098 L78.296976,27.7185951 C79.6934411,28.2730537 80.520976,29.2087024 80.520976,30.7854439 C80.520976,32.6740683 78.9521078,34.3201171 76.2453791,34.3201171 Z M85.0263,34.3201171 C82.8885016,34.3201171 82.0092457,32.9512976 82.0092457,30.9240585 L82.0092457,27.5973073 L80.854145,27.5973073 L80.854145,25.5873951 L82.1644085,25.500761 L82.4747341,22.8670829 L84.6814938,22.8670829 L84.6814938,25.500761 L86.6986101,25.500761 L86.6986101,27.5973073 L84.6814938,27.5973073 L84.6814938,30.8894049 C84.6814938,31.8597073 85.1296341,32.2235707 85.7676333,32.2235707 C86.0434783,32.2235707 86.3365636,32.1889171 86.5606876,32.1022829 L86.974455,33.9735805 C86.526207,34.1468488 85.8710752,34.3201171 85.0263,34.3201171 Z M91.7351512,34.3201171 C89.5628721,34.3201171 87.5457558,32.6567415 87.5457558,29.7978146 C87.5457558,26.9388878 89.5628721,25.292839 91.7351512,25.292839 C93.9246705,25.292839 95.9417868,26.9388878 95.9417868,29.7978146 C95.9417868,32.6567415 93.9246705,34.3201171 91.7351512,34.3201171 Z M91.7351512,32.1542634 C92.7350891,32.1542634 93.2005775,31.2359415 93.2005775,29.7978146 C93.2005775,28.3770146 92.7350891,27.4413659 91.7351512,27.4413659 C90.7352132,27.4413659 90.2697248,28.3770146 90.2697248,29.7978146 C90.2697248,31.2359415 90.7352132,32.1542634 91.7351512,32.1542634 Z M97.6251953,34.1121951 L97.6251953,25.500761 L99.7974744,25.500761 L99.9871178,26.9908683 L100.056079,26.9908683 C100.67673,25.8299707 101.624947,25.292839 102.486963,25.292839 C102.986932,25.292839 103.280017,25.3448195 103.521381,25.4661073 L103.021412,27.735922 C102.711087,27.6666146 102.521443,27.631961 102.142157,27.631961 C101.504265,27.631961 100.728451,28.0478049 100.280203,29.1913756 L100.280203,34.1121951 L97.6251953,34.1121951 Z M108.305783,34.3201171 C105.857551,34.3201171 103.961117,32.6740683 103.961117,29.7978146 C103.961117,27.0081951 105.960993,25.292839 108.012698,25.292839 C110.495302,25.292839 111.702124,27.0948293 111.702124,29.4339512 C111.702124,29.9191024 111.650403,30.3696 111.598682,30.6121756 L106.547164,30.6121756 C106.788636,31.7730732 107.59893,32.2755512 108.68507,32.2755512 C109.305721,32.2755512 109.926372,32.0849561 110.529783,31.7384195 L111.391798,33.3498146 C110.495302,33.9909073 109.322961,34.3201171 108.305783,34.3201171 Z M106.512683,28.8101854 L109.426403,28.8101854 C109.426403,27.9611707 109.047116,27.320078 108.081659,27.320078 C107.323085,27.320078 106.685194,27.8052293 106.512683,28.8101854 Z" id="Shape" fill="#000000" fill-rule="nonzero"></path>
                    <rect id="Rectangle" stroke="#000000" stroke-width="1.08" x="0" y="0" width="139" height="44.4" rx="6"></rect>
                </g>
            </g>
        </g>
    </g>
</svg>