<?xml version="1.0" encoding="UTF-8"?>
<svg width="30px" height="31px" viewBox="0 0 30 31" version="1.1" xmlns="http://www.w3.org/2000/svg" xmlns:xlink="http://www.w3.org/1999/xlink">
    <title>2DD0922E-B8F0-48AE-BA83-945E196DB1FC</title>
    <g id="website" stroke="none" stroke-width="1" fill="none" fill-rule="evenodd">
        <g id="havahavai_desktop-website" transform="translate(-640.000000, -2466.000000)" fill="#000000" fill-rule="nonzero">
            <g id="Group-26" transform="translate(360.000000, 2466.000000)">
                <g id="facebook" transform="translate(280.000000, 0.020996)">
                    <path d="M28.3579464,0 L1.65046249,0 C0.736570036,0 0,0.736363636 0,1.65 L0,28.3363636 C0,29.2636364 0.736570036,30 1.65046249,30 L16.0272184,30 L16.0272184,18.3954545 L12.1397654,18.3954545 L12.1397654,13.8545455 L16.0408586,13.8545455 L16.0408586,10.5136364 C16.0408586,6.64090909 18.4142509,4.52727273 21.8652179,4.52727273 C23.0246337,4.52727273 24.1976897,4.58181818 25.3571055,4.70454545 L25.3571055,8.75454545 L22.970073,8.75454545 C21.0877273,8.75454545 20.7194423,9.64090909 20.7194423,10.9636364 L20.7194423,13.8545455 L25.2207036,13.8545455 L24.6341756,18.3954545 L20.6921619,18.3954545 L20.6921619,30 L28.3443062,30 C29.2581986,30 29.9949551,29.2636364 29.9949551,28.35 L29.9949551,1.65 C30.0084089,0.736363636 29.2718388,0 28.3579464,0 Z" id="Path"></path>
                </g>
            </g>
        </g>
    </g>
</svg>