<?xml version="1.0" encoding="UTF-8"?>
<svg width="16px" height="16px" viewBox="0 0 16 16" version="1.1" xmlns="http://www.w3.org/2000/svg" xmlns:xlink="http://www.w3.org/1999/xlink">
    <title>9DB097A2-D6B6-4C0C-AC69-80D50A3FF862</title>
    <g id="website" stroke="none" stroke-width="1" fill="none" fill-rule="evenodd">
        <g id="havahavai_desktop-website" transform="translate(-1311.000000, -32.000000)" fill="#000000" fill-rule="nonzero">
            <g id="Group-19" transform="translate(1311.000000, 31.000000)">
                <path d="M8,1 C3.56363636,1 0,4.56363636 0,9 C0,13.4363636 3.56363636,17 8,17 C12.4363636,17 16,13.4363636 16,9 C16,4.56363636 12.4363636,1 8,1 Z M13.8181818,9 C13.8181818,9.50909091 13.7454545,10.0181818 13.6,10.4545455 C13.1636364,9.36363636 12.4363636,8.2 11.4181818,7.03636364 L12.7272727,5.72727273 C13.4545455,6.67272727 13.8181818,7.76363636 13.8181818,9 Z M4,5 C4.94545455,5 6.61818182,5.58181818 8.36363636,7.10909091 L6.03636364,9.43636364 C4.43636364,7.4 4,5.72727273 4,5 Z M9.89090909,8.63636364 C11.5636364,10.6 12,12.2727273 12,13 C11.0545455,13 9.38181818,12.4181818 7.63636364,10.8909091 L9.89090909,8.63636364 Z M11.2727273,4.2 L9.89090909,5.58181818 C8.72727273,4.56363636 7.56363636,3.83636364 6.47272727,3.4 C6.98181818,3.25454545 7.41818182,3.18181818 7.92727273,3.18181818 C9.23636364,3.18181818 10.3272727,3.54545455 11.2727273,4.2 Z M2.18181818,9 C2.18181818,8.49090909 2.25454545,7.98181818 2.4,7.54545455 C2.83636364,8.63636364 3.56363636,9.8 4.58181818,10.9636364 L3.27272727,12.2727273 C2.54545455,11.3272727 2.18181818,10.2363636 2.18181818,9 Z M4.72727273,13.8 L6.10909091,12.4181818 C7.27272727,13.4363636 8.43636364,14.1636364 9.52727273,14.6 C9.01818182,14.7454545 8.58181818,14.8181818 8.07272727,14.8181818 C6.76363636,14.8181818 5.67272727,14.4545455 4.72727273,13.8 L4.72727273,13.8 Z" id="globe"></path>
            </g>
        </g>
    </g>
</svg>