<?xml version="1.0" encoding="UTF-8"?>
<svg width="31px" height="30px" viewBox="0 0 31 30" version="1.1" xmlns="http://www.w3.org/2000/svg" xmlns:xlink="http://www.w3.org/1999/xlink">
    <title>866BEB50-C4B0-48C7-A30C-308781A70AAA</title>
    <g id="website" stroke="none" stroke-width="1" fill="none" fill-rule="evenodd">
        <g id="havahavai_desktop-website" transform="translate(-499.000000, -2466.000000)" fill="#000000" fill-rule="nonzero">
            <g id="Group-26" transform="translate(360.000000, 2466.000000)">
                <g id="instagram" transform="translate(139.978998, 0.000000)">
                    <path d="M27.4675044,2.5401925 C24.6070749,-0.333052732 20.7659267,0.0209964426 15.0042044,0.0209964426 C9.61025167,0.0209964426 5.46943946,-0.401139112 2.5409045,2.5401925 C-0.333146086,5.39982045 0.0210023278,9.23989227 0.0210023278,15 C0.0210023278,20.378824 -0.40125155,24.5320932 2.5409045,27.4598075 C5.40133399,30.3330527 9.24248217,29.9790036 15.0042044,29.9790036 C20.3981572,29.9790036 24.5389694,30.4011391 27.4675044,27.4598075 C30.3279339,24.6001796 29.9874065,20.7601077 29.9874065,15 C29.9874065,9.13095406 30.3143128,5.3725859 27.4675044,2.5401925 Z M25.5605514,25.5533889 C23.6944617,27.4189557 21.2290439,27.2827829 15.0042044,27.2827829 C9.16075561,27.2827829 6.36843158,27.4870421 4.44785749,25.5533889 C2.48642013,23.5925011 2.71797871,20.773725 2.71797871,15 C2.71797871,9.23989227 2.51366231,6.38026432 4.44785749,4.44661113 C6.36843158,2.52657522 9.01092359,2.71721708 15.0042044,2.71721708 C20.7659267,2.71721708 23.6263562,2.51295794 25.5605514,4.44661113 C27.4402622,6.32579521 27.2904302,8.83137399 27.2904302,15 C27.2904302,20.773725 27.4947465,23.633353 25.5605514,25.5533889 Z" id="Shape"></path>
                    <path d="M15.0042044,7.30623908 C10.7534905,7.30661511 7.30791085,10.7518389 7.30828699,15.0013617 C7.30866312,19.2508846 10.7548526,22.6954987 15.0055665,22.6951226 C19.2562805,22.6947466 22.7018601,19.2495229 22.701484,15 C22.7011078,10.7504771 19.2549184,7.30586305 15.0042044,7.30623908 L15.0042044,7.30623908 Z M15.0042044,19.9975403 C12.2527437,19.9975403 10.0052634,17.764307 10.0052634,15 C10.0052634,12.235693 12.2391226,10.0024597 15.0042044,10.0024597 C17.7692863,10.0024597 20.0031455,12.235693 20.0031455,15 C20.0031455,17.7506897 17.7556652,19.9975403 15.0042044,19.9975403 Z M22.9997859,5.20917858 C22.0054461,5.20917858 21.2018017,6.01259787 21.2018017,7.00665901 C21.2018017,8.00072016 22.0054461,8.80413944 22.9997859,8.80413944 C23.9941257,8.80413944 24.7977702,8.00072016 24.7977702,7.00665901 C24.7977702,6.01259787 23.9941257,5.20917858 22.9997859,5.20917858 Z" id="Shape"></path>
                </g>
            </g>
        </g>
    </g>
</svg>