<?xml version="1.0" encoding="UTF-8"?>
<svg width="31px" height="31px" viewBox="0 0 31 31" version="1.1" xmlns="http://www.w3.org/2000/svg" xmlns:xlink="http://www.w3.org/1999/xlink">
    <title>6829FAC6-6CB7-4D40-973A-9A5C34D7CB4C</title>
    <g id="website" stroke="none" stroke-width="1" fill="none" fill-rule="evenodd">
        <g id="havahavai_desktop-website" transform="translate(-360.000000, -2466.000000)" fill="#000000" fill-rule="nonzero">
            <g id="Group-26" transform="translate(360.000000, 2466.000000)">
                <g id="linkedin" transform="translate(0.000000, 0.020996)">
                    <path d="M27.7850586,0 L2.20971011,0 C0.995733567,0 0,0.968181818 0,2.15454545 L0,27.8318182 C0,29.0318182 0.995733567,30 2.20971011,30 L27.7850586,30 C29.0126753,30 30.0084089,29.0318182 30.0084089,27.8318182 L30.0084089,2.15454545 C30.0084089,0.968181818 29.0126753,0 27.7850586,0 Z M8.90704136,25.5681818 L4.44670059,25.5681818 L4.44670059,11.25 L8.90704136,11.25 L8.90704136,25.5681818 L8.90704136,25.5681818 Z M6.67005088,9.28636364 C5.25147155,9.28636364 4.09205575,8.12727273 4.09205575,6.70909091 C4.09205575,5.29090909 5.23783136,4.13181818 6.67005088,4.13181818 C8.08863021,4.13181818 9.248046,5.29090909 9.248046,6.70909091 C9.26168619,8.12727273 8.10227039,9.28636364 6.67005088,9.28636364 Z M25.5753485,25.5681818 L21.1286479,25.5681818 L21.1286479,18.6136364 C21.1286479,16.95 21.1013675,14.8227273 18.8098163,14.8227273 C16.4909847,14.8227273 16.1363399,16.6363636 16.1363399,18.5045455 L16.1363399,25.5818182 L11.6896393,25.5818182 L11.6896393,11.2636364 L15.9590174,11.2636364 L15.9590174,13.2136364 L16.0135782,13.2136364 C16.6137464,12.0818182 18.0596061,10.8954545 20.2283956,10.8954545 C24.7296569,10.8954545 25.5617083,13.8545455 25.5617083,17.7136364 L25.5617083,25.5681818 L25.5753485,25.5681818 Z" id="Shape"></path>
                </g>
            </g>
        </g>
    </g>
</svg>