<?xml version="1.0" encoding="UTF-8"?>
<svg width="127px" height="18px" viewBox="0 0 127 18" version="1.1" xmlns="http://www.w3.org/2000/svg" xmlns:xlink="http://www.w3.org/1999/xlink">
    <title>DBD9B327-E4CA-4595-B63E-1E348B5545B7</title>
    <g id="mvp" stroke="none" stroke-width="1" fill="none" fill-rule="evenodd">
        <g id="onboarding" transform="translate(-20.000000, -41.000000)" fill="#000000" fill-rule="nonzero">
            <path d="M23.5298403,58.6398673 L23.5298403,51.9444217 C23.5298403,51.2637205 23.6521734,50.6724689 23.8968395,50.1706668 C24.1415055,49.6688647 24.482187,49.2853866 24.9188839,49.0202326 C25.3555807,48.7550786 25.8690899,48.6225016 26.4594114,48.6225016 C27.2391192,48.6225016 27.8135745,48.8576753 28.1827773,49.3280226 C28.5519801,49.7983699 28.7365815,50.5145806 28.7365815,51.4766547 L28.7365815,51.4766547 L28.7365815,58.6398673 L32.2664218,58.6398673 L32.2664218,50.8997788 C32.2664218,49.827613 32.0708022,48.8929391 31.6795632,48.0957569 C31.2883241,47.2985747 30.7337014,46.6830562 30.0156953,46.2492013 C29.2976891,45.8153465 28.4508649,45.5984191 27.4752226,45.5984191 C26.4801884,45.5984191 25.5668775,45.8146707 24.7352899,46.247174 C24.2897965,46.4788722 23.8930897,46.7546661 23.5451697,47.0745558 L23.5298302,47.0888843 L23.5298403,41.3088958 L20,41.3088958 L20,58.6398673 L23.5298403,58.6398673 Z M40.6826975,59 C41.9061538,59 43.0164694,58.7058486 44.0136443,58.1175459 C44.3158185,57.9392723 44.598243,57.7409096 44.8609177,57.5224578 L44.9127648,57.4785567 L45.2170161,58.6206995 L47.984148,58.6206995 L47.984148,45.8815121 L45.3488563,45.8815121 L44.9725625,47.0953326 L44.9391277,47.0661247 C44.6804029,46.8450947 44.4019283,46.6445827 44.1037041,46.4645885 L44.0136443,46.4112058 C43.0164694,45.8307667 41.9061538,45.5405472 40.6826975,45.5405472 C39.3962802,45.5405472 38.2306849,45.8307667 37.1859116,46.4112058 C36.1411383,46.9916448 35.3213244,47.7955234 34.7264697,48.8228416 C34.1316151,49.8501597 33.8341877,50.9929145 33.8341877,52.2511058 C33.8341877,53.5191268 34.1316151,54.6667964 34.7264697,55.6941145 C35.3213244,56.7214327 36.1411383,57.5292431 37.1859116,58.1175459 C38.2306849,58.7058486 39.3962802,59 40.6826975,59 Z M40.9705548,55.7422182 C40.2951101,55.7422182 39.6885448,55.5907192 39.1508586,55.2877212 C38.6131725,54.9847231 38.1890048,54.5669029 37.8783557,54.0342603 C37.5677066,53.5016178 37.412382,52.907233 37.412382,52.2511058 C37.412382,51.594733 37.5677066,51.0002867 37.8783557,50.467767 C38.1890048,49.9352474 38.6131725,49.5174271 39.1508586,49.2143062 C39.6885448,48.9111853 40.2951101,48.7596248 40.9705548,48.7596248 C41.6459994,48.7596248 42.2518722,48.9111853 42.7881732,49.2143062 C43.3244742,49.5174271 43.7479493,49.9345716 44.0585984,50.4657397 C44.3692475,50.9969078 44.5245721,51.5920298 44.5245721,52.2511058 C44.5245721,52.9101818 44.3692475,53.5053039 44.0585984,54.036472 C43.7479493,54.5676401 43.3244742,54.9847231 42.7881732,55.2877212 C42.2518722,55.5907192 41.6459994,55.7422182 40.9705548,55.7422182 Z M57.6027537,58.6398673 L62.7898511,45.9006799 L59.132326,45.9006799 L55.993401,54.4357782 L52.7983328,45.9006799 L49.0331446,45.9006799 L54.3452823,58.6398673 L57.6027537,58.6398673 Z M69.3643461,59 C70.5878025,59 71.6981181,58.7058486 72.6952929,58.1175459 C72.9974671,57.9392723 73.2798916,57.7409096 73.5425664,57.5224578 L73.5944098,57.4785567 L73.8986647,58.6206995 L76.6657966,58.6206995 L76.6657966,45.8815121 L74.0305049,45.8815121 L73.6542075,47.0953326 L73.6207763,47.0661247 C73.3620515,46.8450947 73.0835769,46.6445827 72.7853527,46.4645885 L72.6952929,46.4112058 C71.6981181,45.8307667 70.5878025,45.5405472 69.3643461,45.5405472 C68.0779288,45.5405472 66.9123336,45.8307667 65.8675603,46.4112058 C64.822787,46.9916448 64.002973,47.7955234 63.4081183,48.8228416 C62.8132637,49.8501597 62.5158363,50.9929145 62.5158363,52.2511058 C62.5158363,53.5191268 62.8132637,54.6667964 63.4081183,55.6941145 C64.002973,56.7214327 64.822787,57.5292431 65.8675603,58.1175459 C66.9123336,58.7058486 68.0779288,59 69.3643461,59 Z M69.6522034,55.7422182 C68.9767588,55.7422182 68.3701934,55.5907192 67.8325072,55.2877212 C67.2948211,54.9847231 66.8706534,54.5669029 66.5600043,54.0342603 C66.2493552,53.5016178 66.0940306,52.907233 66.0940306,52.2511058 C66.0940306,51.594733 66.2493552,51.0002867 66.5600043,50.467767 C66.8706534,49.9352474 67.2948211,49.5174271 67.8325072,49.2143062 C68.3701934,48.9111853 68.9767588,48.7596248 69.6522034,48.7596248 C70.327648,48.7596248 70.9335208,48.9111853 71.4698218,49.2143062 C72.0061228,49.5174271 72.4295979,49.9345716 72.740247,50.4657397 C73.0508961,50.9969078 73.2062207,51.5920298 73.2062207,52.2511058 C73.2062207,52.9101818 73.0508961,53.5053039 72.740247,54.036472 C72.4295979,54.5676401 72.0061228,54.9847231 71.4698218,55.2877212 C70.9335208,55.5907192 70.327648,55.7422182 69.6522034,55.7422182 Z M87.7511013,58.6398673 L87.7511013,51.9444217 C87.7511013,51.2637205 87.8734343,50.6724689 88.1181004,50.1706668 C88.3627665,49.6688647 88.703448,49.2853866 89.1401448,49.0202326 C89.5768417,48.7550786 90.0903509,48.6225016 90.6806723,48.6225016 C91.4603802,48.6225016 92.0348355,48.8576753 92.4040383,49.3280226 C92.773241,49.7983699 92.9578424,50.5145806 92.9578424,51.4766547 L92.9578424,51.4766547 L92.9578424,58.6398673 L96.4876827,58.6398673 L96.4876827,50.8997788 C96.4876827,49.827613 96.2920632,48.8929391 95.9008241,48.0957569 C95.5095851,47.2985747 94.9549624,46.6830562 94.2369562,46.2492013 C93.51895,45.8153465 92.6721258,45.5984191 91.6964836,45.5984191 C90.7014494,45.5984191 89.7881385,45.8146707 88.9565508,46.247174 C88.5110574,46.4788722 88.1143507,46.7546661 87.7664307,47.0745558 L87.7510036,47.0888843 L87.7511013,41.3088958 L84.221261,41.3088958 L84.221261,58.6398673 L87.7511013,58.6398673 Z M104.903958,59 C106.127415,59 107.23773,58.7058486 108.234905,58.1175459 C108.537079,57.9392723 108.819504,57.7409096 109.082179,57.5224578 L109.134099,57.4785567 L109.438277,58.6206995 L112.205409,58.6206995 L112.205409,45.8815121 L109.570117,45.8815121 L109.193897,47.0954898 L109.160389,47.0661247 C108.901664,46.8450947 108.623189,46.6445827 108.324965,46.4645885 L108.234905,46.4112058 C107.23773,45.8307667 106.127415,45.5405472 104.903958,45.5405472 C103.617541,45.5405472 102.451946,45.8307667 101.407173,46.4112058 C100.362399,46.9916448 99.5425853,47.7955234 98.9477307,48.8228416 C98.352876,49.8501597 98.0554487,50.9929145 98.0554487,52.2511058 C98.0554487,53.5191268 98.352876,54.6667964 98.9477307,55.6941145 C99.5425853,56.7214327 100.362399,57.5292431 101.407173,58.1175459 C102.451946,58.7058486 103.617541,59 104.903958,59 Z M105.191816,55.7422182 C104.516371,55.7422182 103.909806,55.5907192 103.37212,55.2877212 C102.834433,54.9847231 102.410266,54.5669029 102.099617,54.0342603 C101.788968,53.5016178 101.633643,52.907233 101.633643,52.2511058 C101.633643,51.594733 101.788968,51.0002867 102.099617,50.467767 C102.410266,49.9352474 102.834433,49.5174271 103.37212,49.2143062 C103.909806,48.9111853 104.516371,48.7596248 105.191816,48.7596248 C105.86726,48.7596248 106.473133,48.9111853 107.009434,49.2143062 C107.545735,49.5174271 107.96921,49.9345716 108.279859,50.4657397 C108.590508,50.9969078 108.745833,51.5920298 108.745833,52.2511058 C108.745833,52.9101818 108.590508,53.5053039 108.279859,54.036472 C107.96921,54.5676401 107.545735,54.9847231 107.009434,55.2877212 C106.473133,55.5907192 105.86726,55.7422182 105.191816,55.7422182 Z M121.824015,58.6398673 L127.011112,45.9006799 L123.353587,45.9006799 L120.214736,54.4357782 L117.019594,45.9006799 L113.254406,45.9006799 L118.566543,58.6398673 L121.824015,58.6398673 Z M133.585607,59 C134.809063,59 135.919379,58.7058486 136.916554,58.1175459 C137.218728,57.9392723 137.501153,57.7409096 137.763827,57.5224578 L137.815744,57.4785567 L138.119926,58.6206995 L140.887058,58.6206995 L140.887058,45.8815121 L138.251766,45.8815121 L137.875542,47.0953326 L137.842037,47.0661247 C137.583312,46.8450947 137.304838,46.6445827 137.006614,46.4645885 L136.916554,46.4112058 C135.919379,45.8307667 134.809063,45.5405472 133.585607,45.5405472 C132.29919,45.5405472 131.133595,45.8307667 130.088821,46.4112058 C129.044048,46.9916448 128.224234,47.7955234 127.629379,48.8228416 C127.034525,49.8501597 126.737097,50.9929145 126.737097,52.2511058 C126.737097,53.5191268 127.034525,54.6667964 127.629379,55.6941145 C128.224234,56.7214327 129.044048,57.5292431 130.088821,58.1175459 C131.133595,58.7058486 132.29919,59 133.585607,59 Z M133.873464,55.7422182 C133.19802,55.7422182 132.591454,55.5907192 132.053768,55.2877212 C131.516082,54.9847231 131.091914,54.5669029 130.781265,54.0342603 C130.470616,53.5016178 130.315292,52.907233 130.315292,52.2511058 C130.315292,51.594733 130.470616,51.0002867 130.781265,50.467767 C131.091914,49.9352474 131.516082,49.5174271 132.053768,49.2143062 C132.591454,48.9111853 133.19802,48.7596248 133.873464,48.7596248 C134.548909,48.7596248 135.154782,48.9111853 135.691083,49.2143062 C136.227384,49.5174271 136.650859,49.9345716 136.961508,50.4657397 C137.272157,50.9969078 137.427482,51.5920298 137.427482,52.2511058 C137.427482,52.9101818 137.272157,53.5053039 136.961508,54.036472 C136.650859,54.5676401 136.227384,54.9847231 135.691083,55.2877212 C135.154782,55.5907192 134.548909,55.7422182 133.873464,55.7422182 Z M146.993578,44.2021216 L146.993578,41 L143.476582,41 L143.476582,44.2021216 L146.993578,44.2021216 Z M147,58.6398673 L147,45.9006799 L143.47016,45.9006799 L143.47016,58.6398673 L147,58.6398673 Z" id="logo"></path>
        </g>
    </g>
</svg>