<?xml version="1.0" encoding="UTF-8"?>
<svg width="141px" height="46px" viewBox="0 0 141 46" version="1.1" xmlns="http://www.w3.org/2000/svg" xmlns:xlink="http://www.w3.org/1999/xlink">
    <title>E7928679-84A5-41C6-91EA-610AEA9D7C08</title>
    <defs>
        <linearGradient x1="60.9141243%" y1="4.83998195%" x2="26.353259%" y2="71.968152%" id="linearGradient-1">
            <stop stop-color="#00A0FF" offset="0%"></stop>
            <stop stop-color="#00A1FF" offset="0.7%"></stop>
            <stop stop-color="#00BEFF" offset="26%"></stop>
            <stop stop-color="#00D2FF" offset="51.2%"></stop>
            <stop stop-color="#00DFFF" offset="76%"></stop>
            <stop stop-color="#00E3FF" offset="100%"></stop>
        </linearGradient>
        <linearGradient x1="107.725048%" y1="49.4238752%" x2="-130.671677%" y2="49.4238752%" id="linearGradient-2">
            <stop stop-color="#FFE000" offset="0%"></stop>
            <stop stop-color="#FFBD00" offset="40.9%"></stop>
            <stop stop-color="#FFA500" offset="77.5%"></stop>
            <stop stop-color="#FF9C00" offset="100%"></stop>
        </linearGradient>
        <linearGradient x1="86.3891577%" y1="30.6361044%" x2="-49.8867189%" y2="136.868657%" id="linearGradient-3">
            <stop stop-color="#FF3A44" offset="0%"></stop>
            <stop stop-color="#C31162" offset="100%"></stop>
        </linearGradient>
        <linearGradient x1="-18.5811892%" y1="-12.3048955%" x2="42.2753632%" y2="34.9150177%" id="linearGradient-4">
            <stop stop-color="#32A071" offset="0%"></stop>
            <stop stop-color="#2DA771" offset="6.9%"></stop>
            <stop stop-color="#15CF74" offset="47.6%"></stop>
            <stop stop-color="#06E775" offset="80.1%"></stop>
            <stop stop-color="#00F076" offset="100%"></stop>
        </linearGradient>
    </defs>
    <g id="website" stroke="none" stroke-width="1" fill="none" fill-rule="evenodd">
        <g id="havahavai_mobile-website" transform="translate(-47.000000, -2403.000000)">
            <g id="Group-9" transform="translate(0.000000, 2208.000000)">
                <g id="Group-10" transform="translate(48.000000, 126.000000)">
                    <g id="googly-play" transform="translate(0.000000, 69.600000)">
                        <rect id="Rectangle" fill="#FFFFFF" fill-rule="nonzero" x="0" y="0" width="139" height="44.4" rx="4.86"></rect>
                        <path d="M10.6285434,9.86788917 C10.3344884,10.1634416 10.2364341,10.656 10.2364341,11.2471698 L10.2364341,33.0191971 C10.2364341,33.6103668 10.4324349,34.102882 10.7265977,34.398521 L10.8245442,34.496959 L22.9796093,22.2810029 L22.9796093,22.0839102 L10.6285434,9.86788917 Z" id="Path" fill="url(#linearGradient-1)" fill-rule="nonzero"></path>
                        <path d="M26.9004868,26.4186498 L22.881555,22.379441 L22.881555,22.0839102 L26.9004868,18.0447015 L26.9985411,18.1432478 L31.8016915,20.901679 C33.1740202,21.6898332 33.1740202,22.9705024 31.8016915,23.7586566 L26.9004868,26.4186498 Z" id="Path" fill="url(#linearGradient-2)" fill-rule="nonzero"></path>
                        <path d="M26.9989721,26.3201034 L22.881986,22.1824566 L10.6289744,34.496959 C11.1190302,34.9895824 11.8051946,34.9895824 12.6874674,34.5955054 L26.9989721,26.3201034 Z" id="Path" fill="url(#linearGradient-3)" fill-rule="nonzero"></path>
                        <path d="M26.9989721,18.0447015 L12.6874674,9.86786751 C11.8051946,9.37528741 11.1190302,9.47380127 10.6289744,9.96638137 L22.881986,22.1824566 L26.9989721,18.0447015 Z" id="Path" fill="url(#linearGradient-4)" fill-rule="nonzero"></path>
                        <path d="M26.9010256,26.2215571 L12.6874674,34.2999746 C11.9032488,34.7924898 11.2170845,34.6939434 10.7269209,34.2999746 L10.6289744,34.3984127 L10.7269209,34.496959 C11.2170845,34.8910361 11.9032488,34.9895824 12.6874674,34.496959 L26.9010256,26.2215571 Z" id="Path" fill="#1F004A" fill-rule="nonzero" opacity="0.2"></path>
                        <path d="M10.6285434,34.2999746 C10.3344884,34.0043356 10.2364341,33.5118205 10.2364341,32.9206507 L10.2364341,33.0191971 C10.2364341,33.6103668 10.4324349,34.102882 10.7265977,34.3984127 L10.7265977,34.2999746 L10.6285434,34.2999746 Z M31.8017992,23.4631259 L26.9005946,26.2215571 L26.9986488,26.3201034 L31.8017992,23.5616722 C32.4879636,23.1675951 32.7820186,22.6749717 32.7820186,22.1824566 C32.7820186,22.6749717 32.3899093,23.0690488 31.8017992,23.4631259 Z" id="Shape" fill="#1F004A" fill-rule="nonzero" opacity="0.12"></path>
                        <path d="M12.6870364,9.96638137 L31.8017992,20.901679 C32.3899093,21.2957561 32.7820186,21.6898332 32.7820186,22.1824566 C32.7820186,21.6898332 32.4879636,21.1972098 31.8017992,20.8031327 L12.6870364,9.86786751 C11.3147078,9.07973502 10.2364341,9.67082898 10.2364341,11.2470615 L10.2364341,11.3456078 C10.2364341,9.86786751 11.3147078,9.17824888 12.6870364,9.96638137 Z" id="Path" fill="#FFFFFF" fill-rule="nonzero" opacity="0.25"></path>
                        <path d="M43.1858621,16.956 C43.9527586,16.956 44.6597414,16.77 45.3068103,16.398 C45.9538793,16.026 46.4531609,15.528 46.8046552,14.904 L46.8046552,14.904 L45.8340517,14.352 C45.5943966,14.808 45.2369109,15.174 44.7615948,15.45 C44.2862787,15.726 43.7610345,15.864 43.1858621,15.864 C42.2192529,15.864 41.4303879,15.552 40.8192672,14.928 C40.2081466,14.304 39.9025862,13.528 39.9025862,12.6 C39.9025862,11.664 40.2081466,10.884 40.8192672,10.26 C41.4303879,9.636 42.2192529,9.324 43.1858621,9.324 C43.7610345,9.324 44.2862787,9.462 44.7615948,9.738 C45.2369109,10.014 45.5943966,10.384 45.8340517,10.848 L45.8340517,10.848 L46.8046552,10.284 C46.4451724,9.66 45.9438937,9.164 45.300819,8.796 C44.6577443,8.428 43.9527586,8.244 43.1858621,8.244 C41.9156897,8.244 40.8671983,8.664 40.0403879,9.504 C39.2135776,10.344 38.8001724,11.376 38.8001724,12.6 C38.8001724,13.824 39.2135776,14.856 40.0403879,15.696 C40.8671983,16.536 41.9156897,16.956 43.1858621,16.956 Z M50.8068966,16.956 C51.6856322,16.956 52.4325575,16.652 53.0476724,16.044 C53.6627874,15.436 53.9703448,14.688 53.9703448,13.8 C53.9703448,12.912 53.6627874,12.164 53.0476724,11.556 C52.4325575,10.948 51.6856322,10.644 50.8068966,10.644 C49.9281609,10.644 49.1832328,10.948 48.5721121,11.556 C47.9609914,12.164 47.655431,12.912 47.655431,13.8 C47.655431,14.688 47.9609914,15.436 48.5721121,16.044 C49.1832328,16.652 49.9281609,16.956 50.8068966,16.956 Z M50.8068966,15.936 C50.2157471,15.936 49.7164655,15.732 49.3090517,15.324 C48.9016379,14.916 48.697931,14.408 48.697931,13.8 C48.697931,13.192 48.9016379,12.684 49.3090517,12.276 C49.7164655,11.868 50.2157471,11.664 50.8068966,11.664 C51.4060345,11.664 51.9093103,11.868 52.3167241,12.276 C52.7241379,12.684 52.9278448,13.192 52.9278448,13.8 C52.9278448,14.408 52.7241379,14.916 52.3167241,15.324 C51.9093103,15.732 51.4060345,15.936 50.8068966,15.936 Z M56.247069,16.8 L56.247069,13.464 C56.247069,12.856 56.3928592,12.4 56.6844397,12.096 C56.9760201,11.792 57.3414943,11.64 57.7808621,11.64 C58.1722989,11.64 58.4818534,11.768 58.7095259,12.024 C58.9371983,12.28 59.0510345,12.64 59.0510345,13.104 L59.0510345,13.104 L59.0510345,16.8 L60.0935345,16.8 L60.0935345,13.464 C60.0935345,12.848 60.227342,12.39 60.4949569,12.09 C60.7625718,11.79 61.1200575,11.64 61.5674138,11.64 C61.9668391,11.64 62.2863793,11.768 62.5260345,12.024 C62.7656897,12.28 62.8855172,12.64 62.8855172,13.104 L62.8855172,13.104 L62.8855172,16.8 L63.9280172,16.8 L63.9280172,13.068 C63.9280172,12.324 63.7203161,11.734 63.3049138,11.298 C62.8895115,10.862 62.3462931,10.644 61.6752586,10.644 C60.8364655,10.644 60.2093678,10.984 59.7939655,11.664 C59.4264943,10.984 58.8393391,10.644 58.0325,10.644 C57.2496264,10.644 56.6544828,10.964 56.247069,11.604 L56.247069,11.604 L56.247069,10.8 L55.204569,10.8 L55.204569,16.8 L56.247069,16.8 Z M65.9051724,9.708 C66.0968966,9.708 66.2606609,9.64 66.3964655,9.504 C66.5322701,9.368 66.6001724,9.204 66.6001724,9.012 C66.6001724,8.82 66.5322701,8.654 66.3964655,8.514 C66.2606609,8.374 66.0968966,8.304 65.9051724,8.304 C65.7054598,8.304 65.5377011,8.374 65.4018966,8.514 C65.266092,8.654 65.1981897,8.82 65.1981897,9.012 C65.1981897,9.204 65.266092,9.368 65.4018966,9.504 C65.5377011,9.64 65.7054598,9.708 65.9051724,9.708 Z M66.420431,16.8 L66.420431,10.8 L65.377931,10.8 L65.377931,16.8 L66.420431,16.8 Z M69.0566379,16.8 L69.0566379,13.62 C69.0566379,12.948 69.216408,12.45 69.5359483,12.126 C69.8554885,11.802 70.2748851,11.64 70.7941379,11.64 C71.2574713,11.64 71.6209483,11.774 71.884569,12.042 C72.1481897,12.31 72.28,12.688 72.28,13.176 L72.28,13.176 L72.28,16.8 L73.3225,16.8 L73.3225,13.116 C73.3225,12.356 73.1108046,11.754 72.6874138,11.31 C72.264023,10.866 71.7008333,10.644 70.9978448,10.644 C70.1270977,10.644 69.4800287,10.984 69.0566379,11.664 L69.0566379,11.664 L69.0566379,10.8 L68.0141379,10.8 L68.0141379,16.8 L69.0566379,16.8 Z M77.7201724,19.356 C78.5589655,19.356 79.277931,19.11 79.877069,18.618 C80.4762069,18.126 80.7757759,17.436 80.7757759,16.548 L80.7757759,16.548 L80.7757759,10.8 L79.7452586,10.8 L79.7452586,11.832 C79.2260057,11.04 78.4750862,10.644 77.4925,10.644 C76.6377299,10.644 75.9147701,10.946 75.3236207,11.55 C74.7324713,12.154 74.4368966,12.892 74.4368966,13.764 C74.4368966,14.636 74.7324713,15.376 75.3236207,15.984 C75.9147701,16.592 76.6377299,16.896 77.4925,16.896 C78.4670977,16.896 79.2180172,16.496 79.7452586,15.696 L79.7452586,15.696 L79.7452586,16.548 C79.7452586,17.116 79.5675144,17.564 79.2120259,17.892 C78.8565374,18.22 78.3672414,18.384 77.7441379,18.384 C76.7695402,18.384 76.118477,18.048 75.7909483,17.376 L75.7909483,17.376 L74.8802586,17.892 C75.1279023,18.364 75.4953736,18.726 75.9826724,18.978 C76.4699713,19.23 77.0491379,19.356 77.7201724,19.356 Z M77.6123276,15.9 C77.0052011,15.9 76.497931,15.696 76.0905172,15.288 C75.6831034,14.88 75.4793966,14.372 75.4793966,13.764 C75.4793966,13.164 75.6831034,12.66 76.0905172,12.252 C76.497931,11.844 77.0052011,11.64 77.6123276,11.64 C78.219454,11.64 78.7267241,11.844 79.1341379,12.252 C79.5415517,12.66 79.7452586,13.164 79.7452586,13.764 C79.7452586,14.372 79.5415517,14.88 79.1341379,15.288 C78.7267241,15.696 78.219454,15.9 77.6123276,15.9 Z M88.1691379,16.956 C89.0478736,16.956 89.7947989,16.652 90.4099138,16.044 C91.0250287,15.436 91.3325862,14.688 91.3325862,13.8 C91.3325862,12.912 91.0250287,12.164 90.4099138,11.556 C89.7947989,10.948 89.0478736,10.644 88.1691379,10.644 C87.2904023,10.644 86.5454741,10.948 85.9343534,11.556 C85.3232328,12.164 85.0176724,12.912 85.0176724,13.8 C85.0176724,14.688 85.3232328,15.436 85.9343534,16.044 C86.5454741,16.652 87.2904023,16.956 88.1691379,16.956 Z M88.1691379,15.936 C87.5779885,15.936 87.0787069,15.732 86.6712931,15.324 C86.2638793,14.916 86.0601724,14.408 86.0601724,13.8 C86.0601724,13.192 86.2638793,12.684 86.6712931,12.276 C87.0787069,11.868 87.5779885,11.664 88.1691379,11.664 C88.7682759,11.664 89.2715517,11.868 89.6789655,12.276 C90.0863793,12.684 90.2900862,13.192 90.2900862,13.8 C90.2900862,14.408 90.0863793,14.916 89.6789655,15.324 C89.2715517,15.732 88.7682759,15.936 88.1691379,15.936 Z M93.6093103,16.8 L93.6093103,13.62 C93.6093103,12.948 93.7690805,12.45 94.0886207,12.126 C94.4081609,11.802 94.8275575,11.64 95.3468103,11.64 C95.8101437,11.64 96.1736207,11.774 96.4372414,12.042 C96.7008621,12.31 96.8326724,12.688 96.8326724,13.176 L96.8326724,13.176 L96.8326724,16.8 L97.8751724,16.8 L97.8751724,13.116 C97.8751724,12.356 97.663477,11.754 97.2400862,11.31 C96.8166954,10.866 96.2535057,10.644 95.5505172,10.644 C94.6797701,10.644 94.0327011,10.984 93.6093103,11.664 L93.6093103,11.664 L93.6093103,10.8 L92.5668103,10.8 L92.5668103,16.8 L93.6093103,16.8 Z" id="Comingon" fill="#000000" fill-rule="nonzero"></path>
                        <path d="M44.5791318,34.3201171 C41.475876,34.3201171 39.0277519,32.3621854 39.0277519,28.5502829 C39.0277519,24.790361 41.5448372,22.6245073 44.5446512,22.6245073 C46.1824806,22.6245073 47.3548217,23.2829268 48.1306357,24.0972878 L46.7169302,25.7260098 C46.1652403,25.2235317 45.5790698,24.9463024 44.6308527,24.9463024 C42.9757829,24.9463024 41.7689612,26.2631415 41.7689612,28.446322 C41.7689612,30.6988098 42.7861395,31.998322 44.8722171,31.998322 C45.2687442,31.998322 45.6997519,31.894361 45.9411163,31.7037659 L45.9411163,29.8844488 L44.148124,29.8844488 L44.148124,27.6839415 L48.3202791,27.6839415 L48.3202791,32.9512976 C47.5444651,33.713678 46.1652403,34.3201171 44.5791318,34.3201171 Z M54.0725085,34.3201171 C51.9002295,34.3201171 49.8831132,32.6567415 49.8831132,29.7978146 C49.8831132,26.9388878 51.9002295,25.292839 54.0725085,25.292839 C56.2620279,25.292839 58.2791442,26.9388878 58.2791442,29.7978146 C58.2791442,32.6567415 56.2620279,34.3201171 54.0725085,34.3201171 Z M54.0725085,32.1542634 C55.0724465,32.1542634 55.5379349,31.2359415 55.5379349,29.7978146 C55.5379349,28.3770146 55.0724465,27.4413659 54.0725085,27.4413659 C53.0725705,27.4413659 52.6070822,28.3770146 52.6070822,29.7978146 C52.6070822,31.2359415 53.0725705,32.1542634 54.0725085,32.1542634 Z M63.6691116,34.3201171 C61.4968326,34.3201171 59.4797163,32.6567415 59.4797163,29.7978146 C59.4797163,26.9388878 61.4968326,25.292839 63.6691116,25.292839 C65.858631,25.292839 67.8757473,26.9388878 67.8757473,29.7978146 C67.8757473,32.6567415 65.858631,34.3201171 63.6691116,34.3201171 Z M63.6691116,32.1542634 C64.6690496,32.1542634 65.134538,31.2359415 65.134538,29.7978146 C65.134538,28.3770146 64.6690496,27.4413659 63.6691116,27.4413659 C62.6691736,27.4413659 62.2036853,28.3770146 62.2036853,29.7978146 C62.2036853,31.2359415 62.6691736,32.1542634 63.6691116,32.1542634 Z M72.627931,37.7335024 C70.6452953,37.7335024 69.0419465,37.1097366 69.0419465,35.5676488 C69.0419465,34.8572488 69.455714,34.2854634 70.2487682,33.8696195 L70.2487682,33.8003122 C69.8005202,33.4884293 69.4729543,33.0379317 69.4729543,32.3275317 C69.4729543,31.7210927 69.8694814,31.0973268 70.4211713,30.6988098 L70.4211713,30.6295024 C69.8177605,30.2136585 69.2660705,29.4166244 69.2660705,28.4116683 C69.2660705,26.315122 70.9901016,25.292839 72.852055,25.292839 C73.3347837,25.292839 73.8002721,25.3621463 74.1967992,25.500761 L77.351776,25.500761 L77.351776,27.4413659 L76.0070318,27.4413659 C76.1449543,27.6839415 76.2656364,28.0824585 76.2656364,28.4983024 C76.2656364,30.5082146 74.7484891,31.3918829 72.852055,31.3918829 C72.5589698,31.3918829 72.2141636,31.3399024 71.8348767,31.2359415 C71.6452333,31.4092098 71.5590318,31.5478244 71.5590318,31.8250537 C71.5590318,32.2408976 71.903838,32.4314927 72.8175744,32.4314927 L74.1795589,32.4314927 C76.3001171,32.4314927 77.4896984,33.0725854 77.4896984,34.632 C77.4896984,36.4513171 75.6105047,37.7335024 72.627931,37.7335024 Z M72.852055,29.7804878 C73.4899465,29.7804878 73.9381946,29.3126634 73.9381946,28.4116683 C73.9381946,27.528 73.4899465,27.0775024 72.852055,27.0775024 C72.2141636,27.0775024 71.7659155,27.528 71.7659155,28.4116683 C71.7659155,29.3126634 72.2314039,29.7804878 72.852055,29.7804878 Z M73.0589388,36.0701268 C74.1450783,36.0701268 74.9381326,35.6542829 74.9381326,35.0998244 C74.9381326,34.5800195 74.4898845,34.4760585 73.6795899,34.4760585 L72.852055,34.4760585 C72.2314039,34.4760585 71.903838,34.4414049 71.6452333,34.3720976 C71.3693884,34.6146732 71.2314659,34.8572488 71.2314659,35.134478 C71.2314659,35.7582439 71.9555589,36.0701268 73.0589388,36.0701268 Z M81.2668349,34.3201171 C79.439362,34.3201171 78.8359512,33.1245659 78.8359512,31.3225756 L78.8359512,22.0007415 L81.4909589,22.0007415 L81.4909589,31.4265366 C81.4909589,31.9809951 81.7668039,32.1542634 81.9736876,32.1542634 C82.0771295,32.1542634 82.1460907,32.1542634 82.2840132,32.1196098 L82.5943388,34.0948683 C82.3011457,34.2161561 81.8530054,34.3201171 81.2668349,34.3201171 Z M87.6981171,34.3201171 C85.249993,34.3201171 83.3535589,32.6740683 83.3535589,29.7978146 C83.3535589,27.0081951 85.3534349,25.292839 87.4050318,25.292839 C89.8876364,25.292839 91.0944581,27.0948293 91.0944581,29.4339512 C91.0944581,29.9191024 91.0427372,30.3696 90.9910163,30.6121756 L85.9396054,30.6121756 C86.1809698,31.7730732 86.9912643,32.2755512 88.0774039,32.2755512 C88.698055,32.2755512 89.3187062,32.0849561 89.9221171,31.7384195 L90.7841326,33.3498146 C89.8876364,33.9909073 88.7152953,34.3201171 87.6981171,34.3201171 Z M85.9051248,28.8101854 L88.8187372,28.8101854 C88.8187372,27.9611707 88.4394504,27.320078 87.473993,27.320078 C86.7154194,27.320078 86.0775279,27.8052293 85.9051248,28.8101854 Z M96.4514535,34.1121951 L96.4514535,22.8324293 L100.399484,22.8324293 C102.864849,22.8324293 104.881965,23.7160976 104.881965,26.4883902 C104.881965,29.1913756 102.830368,30.3696 100.468446,30.3696 L99.1409419,30.3696 L99.1409419,34.1121951 L96.4514535,34.1121951 Z M99.1409419,28.2384 L100.313283,28.2384 C101.640787,28.2384 102.261438,27.6146341 102.261438,26.4883902 C102.261438,25.3621463 101.554585,24.9636293 100.244322,24.9636293 L99.1409419,24.9636293 L99.1409419,28.2384 Z M109.012636,34.3201171 C107.185163,34.3201171 106.582075,33.1245659 106.582075,31.3225756 L106.582075,22.0007415 L109.23676,22.0007415 L109.23676,31.4265366 C109.23676,31.9809951 109.512605,32.1542634 109.719488,32.1542634 C109.82293,32.1542634 109.891891,32.1542634 110.029814,32.1196098 L110.34014,34.0948683 C110.047054,34.2161561 109.598806,34.3201171 109.012636,34.3201171 Z M113.754798,34.3201171 C112.18593,34.3201171 111.203233,33.1418927 111.203233,31.7037659 C111.203233,29.8844488 112.599698,28.8968195 115.978798,28.5502829 C115.909837,27.8398829 115.547791,27.424039 114.668535,27.424039 C113.978922,27.424039 113.28931,27.6666146 112.427295,28.1517659 L111.496318,26.4190829 C112.616938,25.7260098 113.841,25.292839 115.185744,25.292839 C117.392504,25.292839 118.633806,26.5230439 118.633806,29.2260293 L118.633806,34.1121951 L116.461527,34.1121951 L116.271884,33.2458537 L116.202922,33.2458537 C115.49607,33.8869463 114.720256,34.3201171 113.754798,34.3201171 Z M114.668535,32.2408976 C115.202984,32.2408976 115.565031,31.9809951 115.978798,31.5651512 L115.978798,30.1963317 C114.272008,30.4215805 113.754798,30.8894049 113.754798,31.4958439 C113.754798,31.998322 114.082364,32.2408976 114.668535,32.2408976 Z M121.775853,37.4389463 C121.224163,37.4389463 120.879357,37.369639 120.53455,37.2310244 L121.000039,35.2557659 C121.275884,35.3250732 121.396566,35.3424 121.568969,35.3424 C122.396504,35.3424 122.810271,34.9092293 123.017155,34.2854634 L123.137837,33.8696195 L119.844938,25.500761 L122.517186,25.500761 L123.689527,29.0700878 C123.930891,29.867122 124.120535,30.6641561 124.344659,31.5131707 L124.41362,31.5131707 C124.603264,30.6988098 124.775667,29.8844488 124.999791,29.0700878 L125.982488,25.500761 L128.534054,25.500761 L125.585961,34.129522 C124.741186,36.3473561 123.82745,37.4389463 121.775853,37.4389463 Z" id="Shape" fill="#000000" fill-rule="nonzero"></path>
                        <rect id="Rectangle" stroke="#000000" stroke-width="1.08" x="0" y="0" width="139" height="44.4" rx="6"></rect>
                    </g>
                </g>
            </g>
        </g>
    </g>
</svg>