<?xml version="1.0" encoding="UTF-8"?>
<svg width="30px" height="30px" viewBox="0 0 30 30" version="1.1" xmlns="http://www.w3.org/2000/svg" xmlns:xlink="http://www.w3.org/1999/xlink">
    <title>FD0AB6E0-9FE0-4406-802D-553BC763F47B</title>
    <g id="website" stroke="none" stroke-width="1" fill="none" fill-rule="evenodd">
        <g id="havahavai_desktop-website" transform="translate(-570.000000, -2466.000000)" fill="#000000" fill-rule="nonzero">
            <g id="Group-26" transform="translate(360.000000, 2466.000000)">
                <g id="whatsapp" transform="translate(210.000000, 0.000000)">
                    <path d="M25.6288468,4.36031532 C22.8338073,1.56023817 19.028962,-0.00993643828 15.0631663,4.73205982e-05 C6.8302549,4.73205982e-05 0.128119276,6.66876462 0.124791502,14.8659124 C0.124791502,17.4856877 0.811976709,20.0425354 2.11812777,22.2979931 L0,30 L7.9184368,27.9316692 C10.108768,29.1183438 12.5626765,29.7405797 15.0565107,29.7416656 L15.0631663,29.7416656 C23.2944138,29.7416656 29.9965494,23.0729961 29.9999389,14.8758483 C30.0112988,10.9305662 28.4375148,7.14446156 25.6288468,4.36031532 M15.0631663,27.2328417 L15.0581746,27.2328417 C12.8344196,27.2328417 10.6515923,26.637618 8.73873294,25.5089566 L8.28615576,25.2406863 L3.58733972,26.4677745 L4.84024641,21.9088355 L4.54573846,21.4418465 C3.3024622,19.4719213 2.64430383,17.1922173 2.64723393,14.8659124 C2.65057151,8.0531718 8.21960029,2.51054476 15.0681579,2.51054476 C18.3626141,2.50329019 21.5230888,3.80799118 23.8451603,6.13388002 C26.1796318,8.44864582 27.4874261,11.5961853 27.4774819,14.8758483 C27.4740972,21.6885889 21.9050684,27.2328417 15.0631663,27.2328417 M21.8734545,17.9775166 C21.49908,17.7903898 19.6654769,16.8928435 19.3227162,16.7686443 C18.9816195,16.6444451 18.7337003,16.5831735 18.4841173,16.9541151 C18.2345343,17.3250567 17.5190631,18.1613314 17.3010939,18.4097298 C17.0831247,18.6581282 16.8651556,18.6879361 16.492445,18.5024652 C16.1197343,18.3169944 14.9167443,17.9245249 13.4907934,16.659349 C12.3809809,15.6740353 11.6322319,14.458539 11.4142628,14.0859414 C11.1962936,13.7133437 11.3909683,13.512969 11.5789875,13.3274982 C11.7470401,13.1618993 11.9516982,12.893629 12.1380535,12.6766943 C12.3244088,12.4597597 12.3859726,12.3057527 12.5107641,12.0573543 C12.6355556,11.8089559 12.5739918,11.5920213 12.4791502,11.4065504 C12.3859726,11.2194236 11.6388875,9.39121127 11.3277406,8.64767201 C11.0265772,7.9273166 10.7187581,8.02336399 10.4891418,8.01342805 C10.251334,8.00374733 10.0133394,7.99933027 9.77533436,8.00007728 C9.39273477,8.0098838 9.03152893,8.17792655 8.77866623,8.46385718 C8.43590557,8.83645481 7.47251517,9.73400109 7.47251517,11.5622134 C7.47251517,13.3904258 8.81028007,15.1573665 8.99663538,15.405765 C9.18299069,15.6541634 11.6289041,19.4049795 15.3726492,21.0146012 C16.2644925,21.3971348 16.9599971,21.6256613 17.5007603,21.7978842 C18.3942675,22.0810584 19.2079081,22.0396587 19.8518322,21.9452673 C20.5689674,21.839284 22.0598099,21.047721 22.3709567,20.1799826 C22.6821035,19.3122441 22.6821035,18.5687048 22.5889258,18.4130418 C22.4957482,18.2573788 22.2445013,18.1629874 21.8734545,17.9775166" id="Shape"></path>
                </g>
            </g>
        </g>
    </g>
</svg>